<?xml version="1.0" encoding="UTF-8" standalone="no"?>
<!-- Created with Inkscape (http://www.inkscape.org/) -->

<svg
   xmlns:dc="http://purl.org/dc/elements/1.1/"
   xmlns:cc="http://creativecommons.org/ns#"
   xmlns:rdf="http://www.w3.org/1999/02/22-rdf-syntax-ns#"
   xmlns:svg="http://www.w3.org/2000/svg"
   xmlns="http://www.w3.org/2000/svg"
   xmlns:sodipodi="http://sodipodi.sourceforge.net/DTD/sodipodi-0.dtd"
   xmlns:inkscape="http://www.inkscape.org/namespaces/inkscape"
   width="210mm"
   height="297mm"
   viewBox="0 0 210 297"
   version="1.1"
   id="svg8"
   sodipodi:docname="drawing.svg"
   inkscape:export-filename="/home/p1rate/eCorp1.png"
   inkscape:export-xdpi="96"
   inkscape:export-ydpi="96"
   inkscape:version="0.92.4 (5da689c313, 2019-01-14)">
  <defs
     id="defs2" />
  <sodipodi:namedview
     id="base"
     pagecolor="#ffffff"
     bordercolor="#666666"
     borderopacity="1.0"
     inkscape:pageopacity="0.0"
     inkscape:pageshadow="2"
     inkscape:zoom="0.83797635"
     inkscape:cx="264.46446"
     inkscape:cy="808.54882"
     inkscape:document-units="mm"
     inkscape:current-layer="layer1"
     showgrid="false"
     showborder="false"
     inkscape:object-nodes="false"
     showguides="false"
     inkscape:window-width="1280"
     inkscape:window-height="771"
     inkscape:window-x="0"
     inkscape:window-y="1"
     inkscape:window-maximized="1"
     inkscape:snap-others="false"
     inkscape:snap-nodes="false" />
  <metadata
     id="metadata5">
    <rdf:RDF>
      <cc:Work
         rdf:about="">
        <dc:format>image/svg+xml</dc:format>
        <dc:type
           rdf:resource="http://purl.org/dc/dcmitype/StillImage" />
        <dc:title />
      </cc:Work>
    </rdf:RDF>
  </metadata>
  <g
     inkscape:label="Layer 1"
     inkscape:groupmode="layer"
     id="layer1">
    <rect
       style="opacity:1;fill:#ffffff;fill-opacity:1;stroke-width:0.26458332"
       id="rect5669"
       width="157.55466"
       height="56.201862"
       x="-18.628708"
       y="40.302719"
       ry="3.4017742" />
    <path
       style="font-style:normal;font-weight:normal;font-size:50.76235199px;line-height:1.25;font-family:sans-serif;letter-spacing:0px;word-spacing:0px;opacity:1;fill:#2b0022;fill-opacity:1;stroke:none;stroke-width:1.2690587"
       d="m 40.691234,40.966934 c -4.842927,0 -8.656958,1.987405 -11.442712,5.962944 -1.681314,2.387862 -3.632966,10.112507 -3.629753,13.565579 l 3.94808,-0.480074 c 0.627382,-0.145729 0.392708,-1.391062 0.778247,-2.850472 0.649769,-2.459628 1.587311,-5.992466 2.203483,-6.938076 1.942884,-3.000769 4.742808,-4.501018 8.400004,-4.501018 1.857169,0 3.606927,0.449403 5.249808,1.347722 1.657167,0.898318 3.214386,2.255316 4.67155,4.071069 v -6.106604 c -1.485736,-1.357035 -3.078495,-2.37013 -4.77852,-3.039092 -1.685738,-0.688075 -3.485874,-1.031978 -5.400187,-1.031978 z M -0.859202,41.740531 V 68.77764 c 1.462977,-0.588743 2.907946,-1.151999 4.32842,-1.68052 v -2.936769 h 0.282151 l -0.0956,-0.103354 C 3.52684,59.544489 3.529139,59.415081 3.527094,59.286745 H 3.469214 V 46.614651 h 15.90032 v -4.87412 z m 67.586573,9.919806 c -3.442907,0 -6.14311,1.490943 -8.100281,4.472596 -0.541768,0.831426 -1.006628,1.753322 -1.396814,2.763655 1.542256,0.108071 3.069764,0.239151 4.584216,0.389125 1.218725,-2.099575 2.855382,-3.15278 4.912879,-3.15278 2.10003,0 3.764387,1.118076 4.992976,3.354318 0.190108,0.34307 0.364941,0.705586 0.52555,1.086755 1.574414,0.225274 3.143703,0.461563 4.712891,0.698664 -0.488897,-1.981306 -1.205262,-3.696144 -2.152841,-5.139737 -1.957171,-2.981653 -4.649956,-4.472596 -8.078576,-4.472596 z m 29.421977,0 c -1.900029,0 -3.514524,0.477845 -4.843116,1.433504 -1.32859,0.936546 -2.406878,2.379909 -3.235463,4.329451 v -4.98884 h -3.964614 v 9.912056 c 1.454483,0.215143 2.912062,0.426871 4.37906,0.627867 0.29564,-1.457164 0.749387,-2.687434 1.363742,-3.68763 1.200018,-1.949543 2.914751,-2.924368 5.143354,-2.924368 0.628582,0 1.199814,0.08585 1.714109,0.257865 0.528576,0.152906 1.01441,0.401654 1.457275,0.745691 l -0.0217,-5.418791 c -0.400005,-0.09556 -0.764381,-0.162279 -1.092957,-0.200504 -0.328575,-0.05734 -0.628256,-0.0863 -0.899686,-0.0863 z m 17.678502,0 c -1.75716,0 -3.27142,0.468537 -4.54287,1.405083 -1.25716,0.917432 -2.29991,2.331833 -3.12849,4.243152 v -4.87412 h -3.9641 v 11.985313 c 1.40019,0.09259 2.81421,0.16646 4.24522,0.217559 0.28371,-1.939698 0.78192,-3.909227 1.49758,-5.235856 1.20002,-2.217129 2.84264,-3.325897 4.92838,-3.325897 2.08575,0 3.72146,1.108768 4.9072,3.325897 0.67328,1.233231 1.05017,3.246401 1.3379,5.047753 0.6364,-0.04292 1.27701,-0.09166 1.92133,-0.145728 l 2.33577,-0.442348 c -0.40347,-2.957259 -1.21723,-5.477487 -2.44481,-7.55613 -1.81431,-3.096334 -4.17878,-4.644678 -7.09311,-4.644678 z"
       id="path1789"
       inkscape:connector-curvature="0"
       inkscape:export-xdpi="96"
       inkscape:export-ydpi="96" />
    <path
       style="font-style:normal;font-weight:normal;font-size:50.76235199px;line-height:1.25;font-family:sans-serif;letter-spacing:0px;word-spacing:0px;opacity:1;fill:#ff0000;fill-opacity:1;stroke:none;stroke-width:1.2690587"
       d="m 49.048347,58.249602 c -0.699757,-0.0057 -1.403778,-0.0055 -2.112016,0.0011 -1.618832,0.01503 -3.260859,0.06289 -4.928898,0.148828 -2.08508,0.107397 -4.212027,0.274389 -6.387724,0.509011 -10.914344,1.17783 -23.049304,4.07471 -37.2116822,9.845394 0.2452899,-0.04579 0.4887092,-0.08878 0.73277149,-0.132807 V 84.228917 H 19.755562 V 79.355313 H 3.4692175 V 67.919837 c 3.5831436,-0.510995 7.0361785,-0.834512 10.3874785,-1.007174 13.471876,-0.694063 25.242591,1.053761 36.964669,2.836003 1.893864,0.287946 3.788796,0.572915 5.687508,0.852659 l -0.774113,-0.03617 c 0.398567,3.278629 1.509389,7.886716 2.89233,10.022641 1.957171,2.981656 4.657374,4.472596 8.100281,4.472596 3.428619,0 6.121405,-1.49094 8.078576,-4.472596 1.296276,-1.987457 2.160567,-4.807709 2.598291,-7.784536 l -4.221964,-0.01243 c -0.271798,0.907708 -1.056032,3.739078 -1.461927,4.471561 -1.228589,2.217126 -2.892946,3.325376 -4.992976,3.325376 -2.128602,0 -3.807279,-1.098939 -5.035869,-3.296954 -0.533401,-0.973913 -1.424227,-4.613212 -1.780253,-6.198071 7.731258,1.07493 15.637093,1.897848 24.194906,1.815909 v 11.320238 h 3.964614 V 72.969624 l -2.42724,-0.08372 c 0.641379,-0.01431 1.283571,-0.02971 1.932697,-0.05478 10.458135,-0.403817 21.975594,-2.243457 35.357534,-6.662126 l -2.7373,1.256771 c -0.10628,0.603189 -0.36255,1.886042 -0.678,3.341399 -0.56868,2.623664 -1.32926,5.807906 -1.74769,6.580992 -1.18574,2.198015 -2.82145,3.296957 -4.9072,3.296957 -2.08574,0 -3.72836,-1.098942 -4.92838,-3.296957 -0.59668,-1.115698 -1.489,-5.121212 -1.78542,-6.657991 l -3.95738,0.868164 v 24.883763 h 3.9641 V 79.412651 c 0.82858,1.911316 1.87133,3.335028 3.12849,4.271574 1.27145,0.917432 2.78571,1.376143 4.54287,1.376143 2.91433,0 5.2788,-1.548345 7.09311,-4.644679 1.23293,-2.0877 2.82179,-11.02397 2.46238,-14.394987 3.26866,-1.090048 6.64705,-2.332193 10.14977,-3.746539 -6.31077,1.201811 -12.21125,1.827707 -17.82113,2.044319 C 102.22724,64.839158 90.451863,63.005437 78.732322,61.223579 69.118644,59.761902 59.54469,58.335565 49.048347,58.249602 Z m -0.04444,1.990061 c 22.334091,0.183216 44.145972,7.180923 66.574743,6.083866 -4.69413,1.301109 -9.33699,2.346348 -14.12317,3.117638 -28.312822,5.499002 -56.523605,-5.485323 -85.129164,-4.631243 7.279347,-2.374614 18.942368,-4.324464 28.203445,-4.511352 1.493919,-0.05278 2.985206,-0.07113 4.474146,-0.05891 z m -23.721549,6.691063 c 0.05025,4.355103 2.078094,9.500661 3.966166,12.19512 2.785754,3.956428 6.599785,5.934522 11.442712,5.934522 1.885742,0 3.671557,-0.343903 5.357296,-1.031979 1.700024,-0.688072 3.307103,-1.720302 4.821411,-3.09645 v -6.049245 c -1.457164,1.815753 -3.014383,3.172751 -4.67155,4.071069 -1.642881,0.898321 -3.392639,1.347206 -5.249808,1.347206 -3.657196,0 -6.45712,-1.490425 -8.400004,-4.472078 -1.158314,-1.789004 -2.30366,-5.836801 -2.771407,-8.563303 z"
       id="path1779"
       inkscape:connector-curvature="0"
       inkscape:export-xdpi="96"
       inkscape:export-ydpi="96" />
    <g
       id="g5758"
       style="fill:#ff0000">
      <path
         inkscape:connector-curvature="0"
         id="path5677"
         style="font-style:normal;font-weight:bold;font-size:11.87367153px;line-height:1.25;font-family:sans-serif;letter-spacing:0px;word-spacing:0px;fill:#ff0000;fill-opacity:1;stroke:none;stroke-width:0.2968418"
         d="M -0.92292326,85.371185 H 3.9236159 v 2.096944 H 0.87295503 v 2.003267 H 3.7416958 V 91.56834 H 0.87295503 v 2.46445 H 4.0262374 v 2.096946 h -4.94916066 z" />
      <path
         inkscape:connector-curvature="0"
         id="path5679"
         style="font-style:normal;font-weight:bold;font-size:11.87367153px;line-height:1.25;font-family:sans-serif;letter-spacing:0px;word-spacing:0px;fill:#ff0000;fill-opacity:1;stroke:none;stroke-width:0.2968418"
         d="m 5.6075439,85.371185 h 1.7958783 v 8.661605 h 3.1532828 v 2.096946 H 5.6075439 Z" />
      <path
         inkscape:connector-curvature="0"
         id="path5681"
         style="font-style:normal;font-weight:bold;font-size:11.87367153px;line-height:1.25;font-family:sans-serif;letter-spacing:0px;word-spacing:0px;fill:#ff0000;fill-opacity:1;stroke:none;stroke-width:0.2968418"
         d="m 11.690207,85.371185 h 1.795878 v 10.758551 h -1.795878 z" />
      <path
         inkscape:connector-curvature="0"
         id="path5683"
         style="font-style:normal;font-weight:bold;font-size:11.87367153px;line-height:1.25;font-family:sans-serif;letter-spacing:0px;word-spacing:0px;fill:#ff0000;fill-opacity:1;stroke:none;stroke-width:0.2968418"
         d="m 14.423675,85.371185 h 6.418516 v 2.096944 h -2.308987 v 8.661607 h -1.795879 v -8.661607 h -2.31365 z" />
      <path
         inkscape:connector-curvature="0"
         id="path5685"
         style="font-style:normal;font-weight:bold;font-size:11.87367153px;line-height:1.25;font-family:sans-serif;letter-spacing:0px;word-spacing:0px;fill:#ff0000;fill-opacity:1;stroke:none;stroke-width:0.2968418"
         d="m 21.765784,85.371185 h 4.84654 v 2.096944 h -3.050661 v 2.003267 h 2.86874 v 2.096944 h -2.86874 v 2.46445 h 3.153282 v 2.096946 h -4.949161 z" />
      <path
         inkscape:connector-curvature="0"
         id="path5687"
         style="font-style:normal;font-weight:bold;font-size:11.87367153px;line-height:1.25;font-family:sans-serif;letter-spacing:0px;word-spacing:0px;fill:#ff0000;fill-opacity:1;stroke:none;stroke-width:0.2968418"
         d="m 37.14037,95.538844 q -0.49445,0.396329 -1.030881,0.598097 -0.536432,0.201768 -1.119509,0.201768 -1.739903,0 -2.756789,-1.498847 -1.016888,-1.506054 -1.016888,-4.078593 0,-2.579747 1.016888,-4.078594 1.016886,-1.506052 2.756789,-1.506052 0.583077,0 1.119509,0.201767 0.536431,0.201769 1.030881,0.598098 v 2.226652 q -0.499114,-0.526037 -0.984235,-0.771041 -0.48512,-0.245004 -1.021552,-0.245004 -0.960911,0 -1.511336,0.951192 -0.550425,0.951191 -0.550425,2.622982 0,1.664584 0.550425,2.615777 0.550425,0.951191 1.511336,0.951191 0.536432,0 1.021552,-0.245005 0.485121,-0.245003 0.984235,-0.771041 z" />
      <path
         inkscape:connector-curvature="0"
         id="path5689"
         style="font-style:normal;font-weight:bold;font-size:11.87367153px;line-height:1.25;font-family:sans-serif;letter-spacing:0px;word-spacing:0px;fill:#ff0000;fill-opacity:1;stroke:none;stroke-width:0.2968418"
         d="m 41.814317,87.187095 q -0.820973,0 -1.27344,0.93678 -0.452468,0.936778 -0.452468,2.637394 0,1.693408 0.452468,2.630188 0.452467,0.93678 1.27344,0.93678 0.825638,0 1.278106,-0.93678 0.452468,-0.93678 0.452468,-2.630188 0,-1.700616 -0.452468,-2.637394 -0.452468,-0.93678 -1.278106,-0.93678 z m 0,-2.010472 q 1.679263,0 2.630846,1.484434 0.951582,1.484436 0.951582,4.100212 0,2.60857 -0.951582,4.093005 -0.951583,1.484435 -2.630846,1.484435 -1.674598,0 -2.630845,-1.484435 -0.951583,-1.484435 -0.951583,-4.093005 0,-2.615776 0.951583,-4.100212 0.956247,-1.484434 2.630845,-1.484434 z" />
      <path
         inkscape:connector-curvature="0"
         id="path5691"
         style="font-style:normal;font-weight:bold;font-size:11.87367153px;line-height:1.25;font-family:sans-serif;letter-spacing:0px;word-spacing:0px;fill:#ff0000;fill-opacity:1;stroke:none;stroke-width:0.2968418"
         d="m 49.301031,90.141553 q 0.564419,0 0.806979,-0.32427 0.247225,-0.324269 0.247225,-1.066487 0,-0.735012 -0.247225,-1.052075 -0.24256,-0.317065 -0.806979,-0.317065 h -0.755669 v 2.759897 z m -0.755669,1.916795 v 4.071388 H 46.749484 V 85.371185 h 2.742796 q 1.376063,0 2.015116,0.713393 0.643717,0.713393 0.643717,2.255476 0,1.066488 -0.335853,1.751057 -0.331188,0.68457 -1.002893,1.008839 0.368505,0.129709 0.657712,0.590892 0.293871,0.453977 0.592406,1.383551 l 0.974906,3.055343 H 51.124897 L 50.275936,93.456311 Q 50.019382,92.64924 49.753499,92.353793 49.49228,92.058348 49.053806,92.058348 Z" />
      <path
         inkscape:connector-curvature="0"
         id="path5693"
         style="font-style:normal;font-weight:bold;font-size:11.87367153px;line-height:1.25;font-family:sans-serif;letter-spacing:0px;word-spacing:0px;fill:#ff0000;fill-opacity:1;stroke:none;stroke-width:0.2968418"
         d="m 54.100924,85.371185 h 2.980691 q 1.329417,0 2.038439,0.91516 0.713687,0.907956 0.713687,2.594159 0,1.693409 -0.713687,2.60857 -0.709022,0.907956 -2.038439,0.907956 h -1.184813 v 3.732706 h -1.795878 z m 1.795878,2.010471 v 3.004901 h 0.993564 q 0.522437,0 0.806979,-0.389124 0.284542,-0.39633 0.284542,-1.116929 0,-0.7206 -0.284542,-1.109723 -0.284542,-0.389125 -0.806979,-0.389125 z" />
      <path
         inkscape:connector-curvature="0"
         id="path5695"
         style="font-style:normal;font-weight:bold;font-size:11.87367153px;line-height:1.25;font-family:sans-serif;letter-spacing:0px;word-spacing:0px;fill:#ff0000;fill-opacity:1;stroke:none;stroke-width:0.2968418"
         d="m 64.279126,87.187095 q -0.820973,0 -1.273441,0.93678 -0.452468,0.936778 -0.452468,2.637394 0,1.693408 0.452468,2.630188 0.452468,0.93678 1.273441,0.93678 0.825638,0 1.278106,-0.93678 0.452468,-0.93678 0.452468,-2.630188 0,-1.700616 -0.452468,-2.637394 -0.452468,-0.93678 -1.278106,-0.93678 z m 0,-2.010472 q 1.679263,0 2.630845,1.484434 0.951582,1.484436 0.951582,4.100212 0,2.60857 -0.951582,4.093005 -0.951582,1.484435 -2.630845,1.484435 -1.674598,0 -2.630845,-1.484435 -0.951582,-1.484435 -0.951582,-4.093005 0,-2.615776 0.951582,-4.100212 0.956247,-1.484434 2.630845,-1.484434 z" />
      <path
         inkscape:connector-curvature="0"
         id="path5697"
         style="font-style:normal;font-weight:bold;font-size:11.87367153px;line-height:1.25;font-family:sans-serif;letter-spacing:0px;word-spacing:0px;fill:#ff0000;fill-opacity:1;stroke:none;stroke-width:0.2968418"
         d="m 71.765839,90.141553 q 0.564419,0 0.80698,-0.32427 0.247225,-0.324269 0.247225,-1.066487 0,-0.735012 -0.247225,-1.052075 -0.242561,-0.317065 -0.80698,-0.317065 h -0.755668 v 2.759897 z m -0.755668,1.916795 v 4.071388 H 69.214293 V 85.371185 h 2.742796 q 1.376063,0 2.015115,0.713393 0.643718,0.713393 0.643718,2.255476 0,1.066488 -0.335853,1.751057 -0.331188,0.68457 -1.002893,1.008839 0.368505,0.129709 0.657712,0.590892 0.29387,0.453977 0.592406,1.383551 l 0.974905,3.055343 H 73.589706 L 72.740745,93.456311 Q 72.484191,92.64924 72.218307,92.353793 71.957089,92.058348 71.518615,92.058348 Z" />
      <path
         inkscape:connector-curvature="0"
         id="path5699"
         style="font-style:normal;font-weight:bold;font-size:11.87367153px;line-height:1.25;font-family:sans-serif;letter-spacing:0px;word-spacing:0px;fill:#ff0000;fill-opacity:1;stroke:none;stroke-width:0.2968418"
         d="m 80.791878,94.169705 h -2.808101 l -0.443139,1.960031 h -1.805207 l 2.579534,-10.758551 h 2.14106 l 2.579534,10.758551 H 81.230352 Z M 78.43158,92.173644 h 1.90783 l -0.951583,-4.280361 z" />
      <path
         inkscape:connector-curvature="0"
         id="path5701"
         style="font-style:normal;font-weight:bold;font-size:11.87367153px;line-height:1.25;font-family:sans-serif;letter-spacing:0px;word-spacing:0px;fill:#ff0000;fill-opacity:1;stroke:none;stroke-width:0.2968418"
         d="m 82.377843,85.371185 h 6.418516 v 2.096944 h -2.308987 v 8.661607 h -1.795878 v -8.661607 h -2.313651 z" />
      <path
         inkscape:connector-curvature="0"
         id="path5703"
         style="font-style:normal;font-weight:bold;font-size:11.87367153px;line-height:1.25;font-family:sans-serif;letter-spacing:0px;word-spacing:0px;fill:#ff0000;fill-opacity:1;stroke:none;stroke-width:0.2968418"
         d="m 89.719957,85.371185 h 4.846539 v 2.096944 h -3.05066 v 2.003267 h 2.86874 v 2.096944 h -2.86874 v 2.46445 h 3.153282 v 2.096946 h -4.949161 z" />
    </g>
    <path
       d="m 101.09696,85.709866 v 2.277095 q -0.57374,-0.396331 -1.119505,-0.598098 -0.545761,-0.201768 -1.030881,-0.201768 -0.643717,0 -0.951582,0.273828 -0.307865,0.273827 -0.307865,0.850308 0,0.432359 0.205243,0.677363 0.209908,0.237797 0.755668,0.410742 l 0.764998,0.237798 q 1.161494,0.360299 1.651274,1.095311 0.48979,0.735011 0.48979,2.089738 0,1.779881 -0.6857,2.651807 -0.68104,0.864719 -2.085088,0.864719 -0.662375,0 -1.329416,-0.194562 -0.667041,-0.194562 -1.334081,-0.576479 v -2.341949 q 0.66704,0.547656 1.287435,0.828689 0.625059,0.273829 1.203472,0.273829 0.587742,0 0.900271,-0.302652 0.312529,-0.302652 0.312529,-0.86472 0,-0.50442 -0.214572,-0.778248 -0.209908,-0.273827 -0.844296,-0.490007 l -0.695029,-0.237798 q -1.044874,-0.345888 -1.529994,-1.102517 -0.480457,-0.75663 -0.480457,-2.039297 0,-1.606936 0.671706,-2.471656 0.671706,-0.864719 1.931152,-0.864719 0.573748,0 1.180149,0.136913 0.606399,0.129709 1.254779,0.39633 z"
       style="font-style:normal;font-weight:bold;font-size:11.87367153px;line-height:1.25;font-family:sans-serif;letter-spacing:0px;word-spacing:0px;fill:#2b0022;fill-opacity:1;stroke:none;stroke-width:0.2968418"
       id="path5705"
       inkscape:connector-curvature="0" />
  </g>
</svg>
